<svg viewBox="0 0 180.4 37.3"><path d="M179.3,28.3c-1.6,3.3-4.2,5-7.2,5c-5.6,0-8-5.6-7.9-10.6c0-0.6,0.1-1.1,0.1-1.6h14.9l0.2-0.4c0.1-0.4,0.1-0.8,0.1-0.8 c0-4.5-2.8-8.4-8.2-8.4c-5.4,0-10.9,3.8-10.9,12.7c0,8.3,4.9,12.5,10,12.5c3.9,0,8-2.6,10.1-7.9L179.3,28.3z M170.6,13.5 c2.1,0,4.1,1.3,4.1,3.8c0,1.5-0.8,1.7-2.9,1.7h-7.4C165.3,15.2,168.2,13.5,170.6,13.5z"/><path d="M148.9,36.7c4.2,0,8.3-2.8,10.3-8l-1.1-0.5c-1.5,3.3-4.3,5.1-7.3,5.1c-5.4,0-7.9-5.5-7.9-10.7c0-4.8,2-9,6.5-9 c3,0,3.8,1.8,4.4,4.1c0.3,1.2,1.4,1.9,2.2,1.9c1.3,0,2.3-1,2.3-2.1c0-1.9-3.1-5.9-8.6-5.9c-6.8,0-10.8,6-10.8,12.5 C139,29.8,142,36.7,148.9,36.7z"/><path d="M126.6,36.2h12.9V35c-4.1-0.2-4.3-1.1-4.3-2.1V12.3l-0.8-0.3c-2.7,1.4-4.2,2-7.9,3.3l0.4,1.1c0.6-0.2,1.3-0.3,1.9-0.3 c1.4,0,2.1,0.5,2.1,2.9v14c0,0.9-0.2,1.9-4.3,2.1V36.2z"/><path d="M118.7,36.7c2.6,0,4.8-2.3,6.3-4.8l-0.9-0.6c-1,1.3-2.2,1.9-3.4,1.9c-1.9,0-3.3-1.4-3.3-4V14.5h3.2c7.6,0,14.5-5.1,14.5-11 c0-2.3-1-3.5-2.6-3.5c-1.6,0-2.7,1.2-2.7,2.7c0,0.9,0.4,1.5,0.7,2c1.9,2.7,0.5,4.9-2.3,6.2c-3.2,1.4-6.8,1.2-10.1,1.2h-0.7V7h-0.6 l-6.9,7l0.3,0.5h3v15.4C113.3,34.3,116,36.7,118.7,36.7z"/><path d="M98.8,11.5c-6.2,0-11.7,5.4-11.7,12.7c0,7.4,5.1,12.5,11.5,12.5c6.4,0,11.2-5,11.2-12.7C109.8,16.4,104.8,11.5,98.8,11.5z M98.8,34.7c-5.7,0-7.2-7-7.2-11.3s1.5-9.8,6.5-9.8c5.7,0,7.2,6.9,7.2,11.2S103.8,34.7,98.8,34.7z"/><path d="M47,14.1c-2.7,0-4.8,2-4.8,4.6c0,2.6,2,4.8,4.8,4.8c2.5,0,4.5-2.1,4.5-4.8S49.5,14.1,47,14.1z M47,21.5 c-1.6,0-2.8-1.2-2.8-2.7c0-1.5,1.2-2.7,2.8-2.7c1.4,0,2.6,1.2,2.6,2.7S48.4,21.5,47,21.5z"/><path d="M29.3,37.3h2.2L41,12.8h-2.1L29.3,37.3z"/><path d="M26.4,14.6c-0.9,0-1.6,0.8-1.6,1.7c0,2.2,3.7,1.6,3.7,7.2c0,6.2-4.8,10.3-8.4,10.3c-1.9,0-3-1.2-3.8-3.6 c3.7-4.6,6-10.1,6-12.6c0-1.5-0.9-2.8-2.2-2.8c-3.3,0-7.2,7.9-7.2,13.9c0,0.7,0.1,1.5,0.2,2.2c-2,1.9-3.6,2.7-5.5,2.7 c-3.1-0.1-4.3-1.9-4.3-4c0-3.9,4.6-7,6.6-8.4c3.4-2.4,4.9-3.7,4.9-5.4c0-1.4-1-1.7-1.6-1.7c-1.1,0-1.7,1.1-1.7,2.7v0.3 C9.3,15,7,14,5.4,14c-2.1,0-4.9,1.6-4.9,3.7c0,1,0.6,1.7,1.5,1.7c0.8,0,1.7-0.5,1.7-1.6v-1.2c0-0.7,0.4-0.9,0.8-0.9 c1.3,0,3.3,1.9,5.4,3.8l-0.1,0.1C3.5,23.6,0,26.6,0,30.8c0,3.8,2.9,6,6,5.9c2.6-0.1,5.3-1.5,7.8-4.1h0.1c0.8,2.6,2.9,4.1,5.5,4.1 c5.7,0,11.2-7.4,11.2-14.4C30.5,17.9,28.2,14.6,26.4,14.6z M15.5,28.4c-0.3-1.1-0.2-2.3-0.2-3c0-2,1-7.8,3.4-7.8c0.9,0,1,0.7,1,1.4 c0,2.2-1.7,6.3-4.1,9.4H15.5z"/><path d="M83.2,36.7h0.6V3.6c0-1,0.2-2,4.3-2.2V0.2h-11v1.2c4.2,0.2,4.4,1.2,4.4,2.2v24.1h-0.1L59.5,0.2h-6.1v1.4 c1.1,0.3,1.8,0.7,3,2.2l1.4,1.7v27.2c0,1-0.3,2-4.4,2.2v1.2h10.9V35c-4.2-0.2-4.3-1.2-4.3-2.2V8.2h0.1L83.2,36.7z"/></svg>